<svg width="76" height="76" viewBox="0 0 76 76" fill="none" xmlns="http://www.w3.org/2000/svg">
<g filter="url(#filter0_d)">
<rect x="10.375" y="0.324219" width="55" height="55" rx="27.5" fill="url(#paint0_linear)"/>
</g>
<path d="M37.8787 20.5596C33.8681 20.5596 30.6211 23.8101 30.6211 27.8172C30.6211 31.8279 33.8716 35.0748 37.8787 35.0748C41.8894 35.0748 45.1364 31.8243 45.1364 27.8172C45.1364 23.8065 41.8859 20.5596 37.8787 20.5596ZM37.8787 32.528C35.2753 32.528 33.168 30.4195 33.168 27.8172C33.168 25.2149 35.2764 23.1065 37.8787 23.1065C40.481 23.1065 42.5895 25.2149 42.5895 27.8172C42.5907 30.4195 40.4822 32.528 37.8787 32.528Z" fill="#FFFDFA" stroke="#FFFDFA" stroke-width="0.5"/>
<path d="M43.7061 13.7695C41.1038 13.6481 34.6582 13.654 32.0536 13.7695C29.7648 13.8768 27.7459 14.4295 26.1183 16.0571C23.3982 18.7773 23.7459 22.4426 23.7459 27.8181C23.7459 33.3197 23.4394 36.9002 26.1183 39.5791C28.8491 42.3086 32.5675 41.9515 37.8793 41.9515C43.329 41.9515 45.21 41.9551 47.137 41.209C49.7569 40.1919 51.7346 37.8501 51.9278 33.6438C52.0504 31.0403 52.0433 24.5959 51.9278 21.9912C51.6945 17.0259 49.0297 14.0147 43.7061 13.7695ZM47.8252 37.7794C46.0421 39.5626 43.5682 39.4035 37.8451 39.4035C31.9522 39.4035 29.5892 39.4907 27.865 37.7617C25.8791 35.7852 26.2385 32.6113 26.2385 27.7992C26.2385 21.2876 25.5703 16.5981 32.1055 16.2634C33.607 16.2103 34.0489 16.1927 37.8286 16.1927L37.8816 16.228C44.1622 16.228 49.0898 15.5704 49.3857 22.1044C49.4528 23.5953 49.4682 24.0431 49.4682 27.8169C49.467 33.6414 49.5778 36.0186 47.8252 37.7794Z" fill="#FFFDFA" stroke="#FFFDFA" stroke-width="0.5"/>
<path d="M45.4245 21.97C46.3611 21.97 47.1204 21.2107 47.1204 20.2741C47.1204 19.3374 46.3611 18.5781 45.4245 18.5781C44.4878 18.5781 43.7285 19.3374 43.7285 20.2741C43.7285 21.2107 44.4878 21.97 45.4245 21.97Z" fill="#FFFDFA" stroke="#FFFDFA" stroke-width="0.5"/>
<defs>
<filter id="filter0_d" x="0.375" y="0.324219" width="75" height="75" filterUnits="userSpaceOnUse" color-interpolation-filters="sRGB">
<feFlood flood-opacity="0" result="BackgroundImageFix"/>
<feColorMatrix in="SourceAlpha" type="matrix" values="0 0 0 0 0 0 0 0 0 0 0 0 0 0 0 0 0 0 127 0"/>
<feOffset dy="10"/>
<feGaussianBlur stdDeviation="5"/>
<feColorMatrix type="matrix" values="0 0 0 0 0 0 0 0 0 0 0 0 0 0 0 0 0 0 0.12 0"/>
<feBlend mode="normal" in2="BackgroundImageFix" result="effect1_dropShadow"/>
<feBlend mode="normal" in="SourceGraphic" in2="effect1_dropShadow" result="shape"/>
</filter>
<linearGradient id="paint0_linear" x1="37.875" y1="0.324219" x2="37.875" y2="55.3242" gradientUnits="userSpaceOnUse">
<stop stop-color="#C2019A"/>
<stop offset="1" stop-color="#EE0018"/>
</linearGradient>
</defs>
</svg>
