<svg width="130" height="21" viewBox="0 0 130 21" fill="none" xmlns="http://www.w3.org/2000/svg">
<path d="M0.596 0.399999H10.256C12.44 0.399999 14.3627 0.801332 16.024 1.604C17.704 2.388 19.0013 3.51733 19.916 4.992C20.8493 6.46667 21.316 8.20267 21.316 10.2C21.316 12.1973 20.8493 13.9333 19.916 15.408C19.0013 16.8827 17.704 18.0213 16.024 18.824C14.3627 19.608 12.44 20 10.256 20H0.596V0.399999ZM9.976 14.848C11.3947 14.848 12.524 14.4467 13.364 13.644C14.2227 12.8227 14.652 11.6747 14.652 10.2C14.652 8.72533 14.2227 7.58667 13.364 6.784C12.524 5.96267 11.3947 5.552 9.976 5.552H7.204V14.848H9.976ZM30.3928 4.404C33.0808 4.404 35.1341 5.01067 36.5528 6.224C37.9715 7.41867 38.6808 9.26667 38.6808 11.768V20H32.8008V17.984C32.0728 19.5147 30.6261 20.28 28.4608 20.28C27.2475 20.28 26.2115 20.0747 25.3528 19.664C24.5128 19.2347 23.8688 18.6653 23.4208 17.956C22.9915 17.228 22.7768 16.416 22.7768 15.52C22.7768 14.008 23.3555 12.86 24.5128 12.076C25.6701 11.292 27.4248 10.9 29.7768 10.9H32.3248C32.1195 9.70533 31.1581 9.108 29.4408 9.108C28.7501 9.108 28.0501 9.22 27.3408 9.444C26.6315 9.64933 26.0248 9.93867 25.5208 10.312L23.5048 6.14C24.3821 5.59867 25.4368 5.17867 26.6688 4.88C27.9195 4.56267 29.1608 4.404 30.3928 4.404ZM30.3648 16.472C30.8128 16.472 31.2141 16.3507 31.5688 16.108C31.9235 15.8653 32.1848 15.5013 32.3528 15.016V13.952H30.7848C29.4968 13.952 28.8528 14.3813 28.8528 15.24C28.8528 15.5947 28.9835 15.8933 29.2448 16.136C29.5248 16.36 29.8981 16.472 30.3648 16.472ZM67.2662 4.684L61.9462 20H55.7862L53.4622 12.916L51.0542 20H44.8942L39.5742 4.684H45.5662L48.1982 12.776L50.9422 4.684H56.3182L58.9782 12.86L61.7222 4.684H67.2662ZM74.2045 20.28C72.8978 20.28 71.6098 20.14 70.3405 19.86C69.0712 19.58 68.0445 19.216 67.2605 18.768L68.9965 14.596C69.7058 15.0253 70.5458 15.3613 71.5165 15.604C72.4872 15.8467 73.4298 15.968 74.3445 15.968C75.0725 15.968 75.5765 15.912 75.8565 15.8C76.1552 15.6693 76.3045 15.4827 76.3045 15.24C76.3045 14.9973 76.1178 14.8293 75.7445 14.736C75.3898 14.6427 74.8018 14.5493 73.9805 14.456C72.7298 14.3067 71.6658 14.12 70.7885 13.896C69.9112 13.6533 69.1365 13.196 68.4645 12.524C67.8112 11.852 67.4845 10.8907 67.4845 9.64C67.4845 8.65067 67.7832 7.764 68.3805 6.98C68.9778 6.196 69.8645 5.57067 71.0405 5.104C72.2352 4.63733 73.6632 4.404 75.3245 4.404C76.4818 4.404 77.6112 4.516 78.7125 4.74C79.8325 4.94533 80.7845 5.25333 81.5685 5.664L79.8325 9.836C78.4885 9.08933 77.0138 8.716 75.4085 8.716C74.0272 8.716 73.3365 8.95867 73.3365 9.444C73.3365 9.68667 73.5232 9.864 73.8965 9.976C74.2698 10.0693 74.8578 10.1627 75.6605 10.256C76.9112 10.4053 77.9658 10.6013 78.8245 10.844C79.7018 11.0867 80.4672 11.544 81.1205 12.216C81.7925 12.888 82.1285 13.8493 82.1285 15.1C82.1285 16.052 81.8298 16.92 81.2325 17.704C80.6352 18.488 79.7392 19.1133 78.5445 19.58C77.3498 20.0467 75.9032 20.28 74.2045 20.28ZM92.1365 20.28C90.4379 20.28 88.9072 19.944 87.5445 19.272C86.2005 18.5813 85.1459 17.6387 84.3805 16.444C83.6152 15.2307 83.2325 13.8587 83.2325 12.328C83.2325 10.7973 83.6152 9.43467 84.3805 8.24C85.1459 7.02667 86.2005 6.084 87.5445 5.412C88.9072 4.74 90.4379 4.404 92.1365 4.404C93.8539 4.404 95.3845 4.74 96.7285 5.412C98.0912 6.084 99.1459 7.02667 99.8925 8.24C100.658 9.43467 101.041 10.7973 101.041 12.328C101.041 13.8587 100.658 15.2307 99.8925 16.444C99.1459 17.6387 98.0912 18.5813 96.7285 19.272C95.3845 19.944 93.8539 20.28 92.1365 20.28ZM92.1365 15.352C92.8645 15.352 93.4619 15.0907 93.9285 14.568C94.3952 14.0267 94.6285 13.28 94.6285 12.328C94.6285 11.376 94.3952 10.6387 93.9285 10.116C93.4619 9.59333 92.8645 9.332 92.1365 9.332C91.4085 9.332 90.8112 9.59333 90.3445 10.116C89.8779 10.6387 89.6445 11.376 89.6445 12.328C89.6445 13.28 89.8779 14.0267 90.3445 14.568C90.8112 15.0907 91.4085 15.352 92.1365 15.352ZM113.661 4.404C115.546 4.404 117.058 4.97333 118.197 6.112C119.354 7.25067 119.933 8.968 119.933 11.264V20H113.605V12.356C113.605 10.6013 112.98 9.724 111.729 9.724C111.02 9.724 110.441 9.976 109.993 10.48C109.564 10.9653 109.349 11.74 109.349 12.804V20H103.021V4.684H109.041V6.196C109.638 5.59867 110.329 5.15067 111.113 4.852C111.897 4.55333 112.746 4.404 113.661 4.404ZM125.537 20.28C124.473 20.28 123.587 19.944 122.877 19.272C122.187 18.5813 121.841 17.704 121.841 16.64C121.841 15.576 122.187 14.7173 122.877 14.064C123.587 13.392 124.473 13.056 125.537 13.056C126.601 13.056 127.479 13.392 128.169 14.064C128.879 14.7173 129.233 15.576 129.233 16.64C129.233 17.704 128.879 18.5813 128.169 19.272C127.479 19.944 126.601 20.28 125.537 20.28Z" fill="white"/>
</svg>
