<svg width="76" height="76" viewBox="0 0 76 76" fill="none" xmlns="http://www.w3.org/2000/svg">
<g filter="url(#filter0_d)">
<rect x="10.1865" y="0.324219" width="55" height="55" rx="27.5" fill="#DDC700"/>
</g>
<path d="M51.29 34.5056C47.6134 33.9005 45.9565 30.1346 45.8895 29.9747C45.8843 29.9644 45.8809 29.9541 45.874 29.9438C45.6866 29.5622 45.6419 29.2477 45.7451 29.0087C45.9462 28.5378 46.7162 28.2937 47.225 28.1321C47.3728 28.0857 47.512 28.041 47.6272 27.9963C48.1291 27.7987 48.4866 27.5838 48.7238 27.3415C49.0057 27.051 49.0607 26.7725 49.0573 26.5921C49.0487 26.152 48.7118 25.7601 48.1738 25.5694C47.9933 25.4954 47.7853 25.4559 47.5756 25.4559C47.433 25.4559 47.2198 25.4748 47.0187 25.5694C46.589 25.7705 46.204 25.8805 45.8723 25.8959C45.6969 25.8873 45.5732 25.8495 45.4924 25.8134C45.5027 25.6415 45.513 25.4645 45.5251 25.2823L45.5302 25.2032C45.6488 23.3417 45.7949 21.0265 45.1796 19.6514C44.7585 18.7095 44.193 17.8999 43.4968 17.2433C42.9142 16.6933 42.2369 16.2464 41.4841 15.9164C40.1761 15.3389 38.9557 15.2529 38.3438 15.2529H38.3421C38.318 15.2529 38.2957 15.2529 38.275 15.2529C38.1049 15.2546 37.8281 15.2581 37.8024 15.2581C37.1922 15.2581 35.9701 15.344 34.6586 15.9216C33.9075 16.2516 33.2337 16.6967 32.6527 17.2468C31.9601 17.9034 31.3963 18.7112 30.9769 19.6497C30.3615 21.023 30.5077 23.3383 30.6245 25.1981V25.2015C30.6366 25.4009 30.6503 25.6089 30.6623 25.8117C30.573 25.8512 30.4269 25.8959 30.212 25.8959C29.8648 25.8959 29.4523 25.7859 28.9865 25.5676C28.849 25.504 28.6926 25.4714 28.5207 25.4714C28.244 25.4714 27.95 25.5522 27.6974 25.7017C27.3777 25.8891 27.1714 26.152 27.1147 26.446C27.0786 26.6385 27.0803 27.0218 27.5066 27.4102C27.7421 27.6234 28.0858 27.821 28.531 27.9963C28.6479 28.0427 28.7871 28.0857 28.9332 28.1321C29.442 28.2937 30.2137 28.5378 30.4148 29.0087C30.5162 29.2477 30.4716 29.5622 30.2842 29.9438C30.279 29.9541 30.2739 29.9644 30.2705 29.9747C30.2223 30.0847 29.784 31.073 28.8851 32.1164C28.3746 32.7094 27.8125 33.2061 27.2144 33.5911C26.4839 34.0621 25.6949 34.368 24.8682 34.5038C24.5433 34.5571 24.3113 34.8459 24.3302 35.1742C24.3353 35.2687 24.3577 35.3632 24.3972 35.4543V35.4561C24.5296 35.7637 24.8338 36.0233 25.3288 36.2519C25.9338 36.5321 26.838 36.7675 28.0188 36.9514C28.0789 37.0649 28.1408 37.3485 28.1838 37.5427C28.2285 37.749 28.2749 37.9621 28.3419 38.1873C28.4141 38.4314 28.5998 38.7236 29.0793 38.7236C29.2615 38.7236 29.4695 38.6823 29.7118 38.6359C30.0659 38.5672 30.5506 38.4726 31.1539 38.4726C31.4891 38.4726 31.8363 38.5018 32.1852 38.5603C32.859 38.672 33.44 39.0811 34.112 39.5555C35.0952 40.2499 36.209 41.0354 37.9106 41.0354C37.9571 41.0354 38.0035 41.0337 38.0499 41.0302C38.1049 41.0337 38.1753 41.0354 38.2475 41.0354C39.9492 41.0354 41.063 40.2499 42.0462 39.5572L42.0479 39.5555C42.7199 39.0828 43.3009 38.6737 43.9747 38.562C44.3236 38.5036 44.6708 38.4743 45.006 38.4743C45.5835 38.4743 46.0407 38.5482 46.4481 38.6273C46.7145 38.6789 46.9207 38.7047 47.0806 38.7047H47.0961H47.1115C47.4622 38.7047 47.72 38.5121 47.818 38.177C47.8833 37.9552 47.9297 37.749 47.9761 37.5376C48.0156 37.3554 48.081 37.0632 48.1394 36.9497C49.3202 36.7641 50.2243 36.5303 50.8294 36.2502C51.3227 36.0216 51.6269 35.762 51.7593 35.4561C51.7988 35.365 51.8228 35.2704 51.828 35.1725C51.8469 34.8476 51.6149 34.5571 51.29 34.5056Z" fill="white"/>
<defs>
<filter id="filter0_d" x="0.186523" y="0.324219" width="75" height="75" filterUnits="userSpaceOnUse" color-interpolation-filters="sRGB">
<feFlood flood-opacity="0" result="BackgroundImageFix"/>
<feColorMatrix in="SourceAlpha" type="matrix" values="0 0 0 0 0 0 0 0 0 0 0 0 0 0 0 0 0 0 127 0"/>
<feOffset dy="10"/>
<feGaussianBlur stdDeviation="5"/>
<feColorMatrix type="matrix" values="0 0 0 0 0 0 0 0 0 0 0 0 0 0 0 0 0 0 0.12 0"/>
<feBlend mode="normal" in2="BackgroundImageFix" result="effect1_dropShadow"/>
<feBlend mode="normal" in="SourceGraphic" in2="effect1_dropShadow" result="shape"/>
</filter>
</defs>
</svg>
