<svg width="75" height="76" viewBox="0 0 75 76" fill="none" xmlns="http://www.w3.org/2000/svg">
<g filter="url(#filter0_d)">
<rect x="10" y="0.324219" width="55" height="55" rx="27.5" fill="#00ACEE"/>
</g>
<path d="M50.0716 20.0298C49.1366 20.4399 48.1403 20.7118 47.1016 20.8438C48.1701 20.2058 48.9857 19.2032 49.3691 17.9948C48.3728 18.5888 47.2728 19.0083 46.1006 19.2425C45.1546 18.2352 43.8063 17.6113 42.3354 17.6113C39.4817 17.6113 37.1843 19.9276 37.1843 22.7672C37.1843 23.1758 37.2189 23.5686 37.3037 23.9426C33.0184 23.7336 29.2266 21.6798 26.6793 18.551C26.2346 19.3226 25.9737 20.2058 25.9737 21.1565C25.9737 22.9416 26.893 24.524 28.2633 25.4402C27.4351 25.4245 26.6227 25.184 25.9344 24.8053C25.9344 24.821 25.9344 24.8415 25.9344 24.8619C25.9344 27.3668 27.7211 29.4473 30.0641 29.9266C29.6446 30.0413 29.1873 30.0963 28.7127 30.0963C28.3827 30.0963 28.0496 30.0775 27.7369 30.0083C28.4047 32.0496 30.2999 33.5503 32.5533 33.599C30.7996 34.9709 28.5729 35.7975 26.1623 35.7975C25.7396 35.7975 25.3341 35.7786 24.9287 35.7268C27.212 37.1992 29.918 38.0399 32.8361 38.0399C42.3213 38.0399 47.507 30.1828 47.507 23.3722C47.507 23.1443 47.4991 22.9243 47.4881 22.7059C48.5111 21.9799 49.3707 21.0732 50.0716 20.0298Z" fill="#FFFDFA"/>
<defs>
<filter id="filter0_d" x="0" y="0.324219" width="75" height="75" filterUnits="userSpaceOnUse" color-interpolation-filters="sRGB">
<feFlood flood-opacity="0" result="BackgroundImageFix"/>
<feColorMatrix in="SourceAlpha" type="matrix" values="0 0 0 0 0 0 0 0 0 0 0 0 0 0 0 0 0 0 127 0"/>
<feOffset dy="10"/>
<feGaussianBlur stdDeviation="5"/>
<feColorMatrix type="matrix" values="0 0 0 0 0 0 0 0 0 0 0 0 0 0 0 0 0 0 0.12 0"/>
<feBlend mode="normal" in2="BackgroundImageFix" result="effect1_dropShadow"/>
<feBlend mode="normal" in="SourceGraphic" in2="effect1_dropShadow" result="shape"/>
</filter>
</defs>
</svg>
